<?xml version="1.0" encoding="UTF-8" standalone="no"?>
<svg
   xmlns:dc="http://purl.org/dc/elements/1.1/"
   xmlns:cc="http://creativecommons.org/ns#"
   xmlns:rdf="http://www.w3.org/1999/02/22-rdf-syntax-ns#"
   xmlns:svg="http://www.w3.org/2000/svg"
   xmlns="http://www.w3.org/2000/svg"
   xmlns:sodipodi="http://sodipodi.sourceforge.net/DTD/sodipodi-0.dtd"
   xmlns:inkscape="http://www.inkscape.org/namespaces/inkscape"
   class="leaflet-zoom-animated"
   style="transform: translate3d(-142px, -73px, 0px);"
   viewBox="-142 -73 1262 645"
   width="1262"
   height="645"
   version="1.1"
   id="svg1207"
   sodipodi:docname="regioni_ita.svg"
   inkscape:version="0.92.4 (5da689c313, 2019-01-14)">
  <metadata
     id="metadata1213">
    <rdf:RDF>
      <cc:Work
         rdf:about="">
        <dc:format>image/svg+xml</dc:format>
        <dc:type
           rdf:resource="http://purl.org/dc/dcmitype/StillImage" />
        <dc:title></dc:title>
      </cc:Work>
    </rdf:RDF>
  </metadata>
  <defs
     id="defs1211" />
  <sodipodi:namedview
     pagecolor="#ffffff"
     bordercolor="#666666"
     borderopacity="1"
     objecttolerance="10"
     gridtolerance="10"
     guidetolerance="10"
     inkscape:pageopacity="0"
     inkscape:pageshadow="2"
     inkscape:window-width="1920"
     inkscape:window-height="1001"
     id="namedview1209"
     showgrid="false"
     inkscape:zoom="3.0547909"
     inkscape:cx="540.33281"
     inkscape:cy="407.6857"
     inkscape:window-x="-9"
     inkscape:window-y="-9"
     inkscape:window-maximized="1"
     inkscape:current-layer="svg1207" />
  <g
     id="g1017">
    <path
       class="leaflet-clickable"
       fill="#4078c0"
       fill-opacity="0.2"
       fill-rule="evenodd"
       stroke="#4078c0"
       stroke-linecap="round"
       stroke-linejoin="round"
       stroke-opacity="0.5"
       stroke-width="1.5"
       d="M 520 208 L 520 211 L 524 219 L 539 234 L 533 243 L 529 239 L 525 241 L 526 244 L 520 246 L 515 242 L 512 243 L 507 241 L 507 238 L 499 234 L 501 231 L 505 232 L 507 230 L 502 225 L 503 224 L 501 222 L 503 221 L 503 218 L 507 218 L 507 214 L 508 215 L 511 211 L 515 211 L 517 209 Z"
       id="path1015" />
  </g>
  <g
     id="g1021">
    <path
       class="leaflet-clickable"
       fill="#4078c0"
       fill-opacity="0.2"
       fill-rule="evenodd"
       stroke="#4078c0"
       stroke-linecap="round"
       stroke-linejoin="round"
       stroke-opacity="0.5"
       stroke-width="1.5"
       d="M 587 284 L 583 281 L 584 276 L 580 273 L 577 275 L 572 271 L 572 269 L 567 268 L 568 266 L 566 263 L 564 262 L 562 264 L 551 264 L 549 262 L 550 259 L 546 256 L 547 253 L 545 253 L 543 250 L 543 248 L 545 248 L 548 245 L 547 238 L 569 238 L 572 242 L 565 248 L 566 253 L 577 259 L 593 265 L 600 271 L 611 276 L 622 287 L 624 292 L 622 296 L 622 302 L 614 299 L 611 289 L 606 287 L 601 288 L 595 284 L 595 282 L 597 282 L 596 281 L 590 281 L 587 284 Z"
       id="path1019" />
  </g>
  <g
     id="g1025">
    <path
       class="leaflet-clickable"
       fill="#4078c0"
       fill-opacity="0.2"
       fill-rule="evenodd"
       stroke="#4078c0"
       stroke-linecap="round"
       stroke-linejoin="round"
       stroke-opacity="0.5"
       stroke-width="1.5"
       d="M 587 284 L 582 293 L 576 293 L 577 294 L 575 298 L 568 299 L 568 296 L 563 296 L 562 299 L 559 295 L 560 291 L 563 289 L 560 286 L 561 285 L 557 282 L 555 278 L 556 277 L 553 275 L 552 271 L 557 268 L 558 263 L 562 264 L 564 262 L 568 265 L 567 267 L 571 269 L 576 275 L 579 275 L 580 273 L 584 275 L 583 282 L 586 284 Z"
       id="path1023" />
  </g>
  <g
     id="g1029">
    <path
       class="leaflet-clickable"
       fill="#4078c0"
       fill-opacity="0.2"
       fill-rule="evenodd"
       stroke="#4078c0"
       stroke-linecap="round"
       stroke-linejoin="round"
       stroke-opacity="0.5"
       stroke-width="1.5"
       d="M 582 293 L 578 304 L 581 308 L 584 307 L 593 314 L 592 322 L 594 327 L 590 329 L 586 328 L 581 331 L 579 334 L 580 342 L 574 346 L 569 356 L 560 357 L 559 349 L 563 346 L 566 339 L 563 337 L 572 332 L 572 328 L 569 325 L 568 315 L 563 306 L 562 297 L 568 296 L 568 299 L 575 299 L 577 294 L 576 293 L 581 292 Z"
       id="path1027" />
  </g>
  <g
     id="g1033">
    <path
       class="leaflet-clickable"
       fill="#4078c0"
       fill-opacity="0.2"
       fill-rule="evenodd"
       stroke="#4078c0"
       stroke-linecap="round"
       stroke-linejoin="round"
       stroke-opacity="0.5"
       stroke-width="1.5"
       d="M 526 280 L 526 280 Z"
       id="path1031" />
  </g>
  <g
     id="g1037">
    <path
       class="leaflet-clickable"
       fill="#4078c0"
       fill-opacity="0.2"
       fill-rule="evenodd"
       stroke="#4078c0"
       stroke-linecap="round"
       stroke-linejoin="round"
       stroke-opacity="0.5"
       stroke-width="1.5"
       d="M 519 274 L 521 274 L 519 276 L 518 274 Z"
       id="path1035" />
  </g>
  <g
     id="g1041">
    <path
       class="leaflet-clickable"
       fill="#4078c0"
       fill-opacity="0.2"
       fill-rule="evenodd"
       stroke="#4078c0"
       stroke-linecap="round"
       stroke-linejoin="round"
       stroke-opacity="0.5"
       stroke-width="1.5"
       d="M 545 252 L 548 258 L 551 259 L 549 261 L 551 264 L 552 263 L 557 265 L 556 269 L 552 271 L 553 275 L 556 277 L 555 278 L 557 282 L 561 285 L 560 286 L 563 289 L 560 295 L 556 294 L 554 297 L 543 289 L 544 285 L 539 276 L 529 279 L 533 275 L 528 271 L 523 272 L 524 273 L 516 260 L 519 257 L 518 254 L 524 254 L 523 253 L 525 251 L 533 255 L 543 253 Z"
       id="path1039" />
  </g>
  <g
     id="g1045">
    <path
       class="leaflet-clickable"
       fill="#4078c0"
       fill-opacity="0.2"
       fill-rule="evenodd"
       stroke="#4078c0"
       stroke-linecap="round"
       stroke-linejoin="round"
       stroke-opacity="0.5"
       stroke-width="1.5"
       d="M 463 143 L 467 145 L 475 142 L 483 144 L 485 149 L 483 147 L 482 149 L 483 161 L 485 167 L 493 175 L 492 178 L 490 179 L 487 176 L 487 174 L 481 177 L 480 176 L 478 180 L 479 182 L 477 182 L 470 178 L 468 174 L 470 171 L 468 171 L 466 168 L 465 169 L 463 166 L 460 169 L 458 169 L 458 171 L 453 170 L 451 172 L 447 169 L 444 170 L 441 166 L 440 167 L 439 165 L 430 161 L 430 159 L 427 159 L 424 162 L 422 160 L 419 160 L 419 156 L 415 154 L 414 155 L 412 152 L 415 152 L 414 149 L 416 146 L 414 146 L 416 140 L 421 138 L 427 140 L 429 137 L 432 141 L 434 140 L 442 145 L 444 145 L 447 142 L 451 145 L 453 143 L 462 143 Z"
       id="path1043" />
  </g>
  <g
     id="g1049">
    <path
       class="leaflet-clickable"
       fill="#4078c0"
       fill-opacity="0.2"
       fill-rule="evenodd"
       stroke="#4078c0"
       stroke-linecap="round"
       stroke-linejoin="round"
       stroke-opacity="0.5"
       stroke-width="1.5"
       d="M 505 118 L 505 119 Z"
       id="path1047" />
  </g>
  <g
     id="g1057">
    <path
       class="leaflet-clickable"
       fill="#4078c0"
       fill-opacity="0.2"
       fill-rule="evenodd"
       stroke="#4078c0"
       stroke-linecap="round"
       stroke-linejoin="round"
       stroke-opacity="0.5"
       stroke-width="1.5"
       d="M 498 268 L 498 269 Z"
       id="path1055" />
  </g>
  <g
     id="g1061">
    <path
       class="leaflet-clickable"
       fill="#4078c0"
       fill-opacity="0.2"
       fill-rule="evenodd"
       stroke="#4078c0"
       stroke-linecap="round"
       stroke-linejoin="round"
       stroke-opacity="0.5"
       stroke-width="1.5"
       d="M 474 210 L 475 214 L 477 216 L 480 215 L 483 221 L 485 221 L 488 225 L 491 222 L 493 222 L 492 221 L 495 220 L 496 217 L 500 217 L 503 215 L 503 213 L 507 214 L 508 217 L 503 218 L 502 220 L 502 225 L 504 226 L 506 232 L 501 231 L 499 234 L 508 239 L 507 240 L 509 242 L 514 242 L 520 245 L 522 248 L 521 253 L 518 254 L 519 257 L 516 260 L 510 260 L 505 257 L 500 260 L 500 258 L 496 254 L 490 253 L 486 247 L 481 244 L 479 238 L 472 235 L 472 233 L 464 224 L 464 222 L 467 223 L 466 220 L 471 216 L 472 213 L 470 212 L 473 210 Z"
       id="path1059" />
  </g>
  <g
     id="g1069">
    <path
       class="leaflet-clickable"
       fill="#4078c0"
       fill-opacity="0.2"
       fill-rule="evenodd"
       stroke="#4078c0"
       stroke-linecap="round"
       stroke-linejoin="round"
       stroke-opacity="0.5"
       stroke-width="1.5"
       d="M 441 92 L 445 95 L 443 98 L 444 100 L 441 109 L 442 114 L 444 116 L 450 115 L 445 122 L 447 133 L 448 132 L 452 134 L 455 139 L 458 138 L 458 140 L 463 143 L 453 143 L 451 145 L 447 142 L 444 145 L 442 145 L 434 140 L 433 141 L 429 137 L 424 140 L 422 138 L 416 140 L 414 145 L 416 146 L 416 148 L 414 150 L 415 151 L 413 152 L 413 150 L 409 147 L 406 140 L 404 140 L 403 142 L 400 141 L 400 139 L 397 136 L 398 130 L 401 132 L 401 130 L 404 129 L 401 125 L 398 113 L 402 108 L 402 105 L 404 107 L 403 109 L 408 115 L 408 108 L 415 99 L 413 95 L 415 93 L 417 94 L 418 92 L 419 97 L 422 100 L 428 97 L 433 102 L 435 101 L 433 99 L 434 96 L 432 95 L 432 91 L 436 88 L 437 91 L 440 91 Z"
       id="path1067" />
  </g>
  <g
     id="g1073">
    <path
       class="leaflet-clickable"
       fill="#4078c0"
       fill-opacity="0.2"
       fill-rule="evenodd"
       stroke="#4078c0"
       stroke-linecap="round"
       stroke-linejoin="round"
       stroke-opacity="0.5"
       stroke-width="1.5"
       d="M 520 208 L 510 212 L 508 215 L 503 213 L 505 211 L 500 208 L 498 209 L 498 207 L 496 206 L 497 202 L 493 193 L 494 192 L 490 192 L 486 188 L 485 189 L 484 186 L 481 187 L 480 185 L 484 183 L 483 181 L 478 181 L 480 177 L 485 175 L 485 177 L 492 179 L 494 175 L 505 184 L 512 187 L 519 207 Z M 481 181 L 482 180 L 480 180 Z"
       id="path1071" />
  </g>
  <g
     id="g1077">
    <path
       class="leaflet-clickable"
       fill="#4078c0"
       fill-opacity="0.2"
       fill-rule="evenodd"
       stroke="#4078c0"
       stroke-linecap="round"
       stroke-linejoin="round"
       stroke-opacity="0.5"
       stroke-width="1.5"
       d="M 547 238 L 547 245 L 543 247 L 543 250 L 545 252 L 534 255 L 532 253 L 525 251 L 523 253 L 524 254 L 522 254 L 522 248 L 520 246 L 525 244 L 525 242 L 528 239 L 532 241 L 532 243 L 539 235 L 546 238 Z"
       id="path1075" />
  </g>
  <g
     id="g1085">
    <path
       class="leaflet-clickable"
       fill="#4078c0"
       fill-opacity="0.2"
       fill-rule="evenodd"
       stroke="#4078c0"
       stroke-linecap="round"
       stroke-linejoin="round"
       stroke-opacity="0.5"
       stroke-width="1.5"
       d="M 393 322 L 396 324 L 395 327 L 393 324 Z"
       id="path1083" />
  </g>
  <g
     id="g1089">
    <path
       class="leaflet-clickable"
       fill="#4078c0"
       fill-opacity="0.2"
       fill-rule="evenodd"
       stroke="#4078c0"
       stroke-linecap="round"
       stroke-linejoin="round"
       stroke-opacity="0.5"
       stroke-width="1.5"
       d="M 392 320 L 392 323 L 390 321 Z"
       id="path1087" />
  </g>
  <g
     id="g1093">
    <path
       class="leaflet-clickable"
       fill="#4078c0"
       fill-opacity="0.2"
       fill-rule="evenodd"
       stroke="#4078c0"
       stroke-linecap="round"
       stroke-linejoin="round"
       stroke-opacity="0.5"
       stroke-width="1.5"
       d="M 392 263 L 393 265 L 392 264 L 390 267 L 392 263 Z"
       id="path1091" />
  </g>
  <g
     id="g1097">
    <path
       class="leaflet-clickable"
       fill="#4078c0"
       fill-opacity="0.2"
       fill-rule="evenodd"
       stroke="#4078c0"
       stroke-linecap="round"
       stroke-linejoin="round"
       stroke-opacity="0.5"
       stroke-width="1.5"
       d="M 419 259 L 418 261 L 418 259 Z"
       id="path1095" />
  </g>
  <g
     id="g1101">
    <path
       class="leaflet-clickable"
       fill="#4078c0"
       fill-opacity="0.2"
       fill-rule="evenodd"
       stroke="#4078c0"
       stroke-linecap="round"
       stroke-linejoin="round"
       stroke-opacity="0.5"
       stroke-width="1.5"
       d="M 413 259 L 414 261 L 416 260 L 421 263 L 420 266 L 422 266 L 419 269 L 421 269 L 424 272 L 423 274 L 427 280 L 422 288 L 422 291 L 425 294 L 423 297 L 424 298 L 421 316 L 422 317 L 421 322 L 417 322 L 413 319 L 410 320 L 408 318 L 410 320 L 408 321 L 409 324 L 406 328 L 400 329 L 398 324 L 396 324 L 396 322 L 393 319 L 395 318 L 395 303 L 397 305 L 398 301 L 396 297 L 396 299 L 394 299 L 394 295 L 396 294 L 394 282 L 392 279 L 388 279 L 390 276 L 388 275 L 390 270 L 389 268 L 390 267 L 392 271 L 397 272 L 403 269 L 409 262 L 411 262 L 412 259 Z"
       id="path1099" />
  </g>
  <g
     id="g1105">
    <path
       class="leaflet-clickable"
       fill="#4078c0"
       fill-opacity="0.2"
       fill-rule="evenodd"
       stroke="#4078c0"
       stroke-linecap="round"
       stroke-linejoin="round"
       stroke-opacity="0.5"
       stroke-width="1.5"
       d="M 417 258 L 418 259 L 416 260 L 417 259 Z"
       id="path1103" />
  </g>
  <g
     id="g1109">
    <path
       class="leaflet-clickable"
       fill="#4078c0"
       fill-opacity="0.2"
       fill-rule="evenodd"
       stroke="#4078c0"
       stroke-linecap="round"
       stroke-linejoin="round"
       stroke-opacity="0.5"
       stroke-width="1.5"
       d="M 488 425 L 490 425 L 489 426 Z"
       id="path1107" />
  </g>
  <g
     id="g1113">
    <path
       class="leaflet-clickable"
       fill="#4078c0"
       fill-opacity="0.2"
       fill-rule="evenodd"
       stroke="#4078c0"
       stroke-linecap="round"
       stroke-linejoin="round"
       stroke-opacity="0.5"
       stroke-width="1.5"
       d="M 475 388 L 477 390 L 476 391 L 474 388 Z"
       id="path1111" />
  </g>
  <g
     id="g1117">
    <path
       class="leaflet-clickable"
       fill="#4078c0"
       fill-opacity="0.2"
       fill-rule="evenodd"
       stroke="#4078c0"
       stroke-linecap="round"
       stroke-linejoin="round"
       stroke-opacity="0.5"
       stroke-width="1.5"
       d="M 483 356 L 484 357 L 482 357 Z"
       id="path1115" />
  </g>
  <g
     id="g1121">
    <path
       class="leaflet-clickable"
       fill="#4078c0"
       fill-opacity="0.2"
       fill-rule="evenodd"
       stroke="#4078c0"
       stroke-linecap="round"
       stroke-linejoin="round"
       stroke-opacity="0.5"
       stroke-width="1.5"
       d="M 478 355 L 477 355 Z"
       id="path1119" />
  </g>
  <g
     id="g1125">
    <path
       class="leaflet-clickable"
       fill="#4078c0"
       fill-opacity="0.2"
       fill-rule="evenodd"
       stroke="#4078c0"
       stroke-linecap="round"
       stroke-linejoin="round"
       stroke-opacity="0.5"
       stroke-width="1.5"
       d="M 557 346 L 557 350 L 551 358 L 546 370 L 547 375 L 550 377 L 549 378 L 551 381 L 551 383 L 547 387 L 548 393 L 546 394 L 542 391 L 540 392 L 532 389 L 532 387 L 527 382 L 523 380 L 520 381 L 514 378 L 498 367 L 491 368 L 486 361 L 487 355 L 491 353 L 493 351 L 492 350 L 494 350 L 494 352 L 498 354 L 501 352 L 501 349 L 504 350 L 506 348 L 508 352 L 516 356 L 520 354 L 534 354 L 539 350 L 547 351 L 549 349 L 555 348 L 556 346 Z"
       id="path1123" />
  </g>
  <g
     id="g1129">
    <path
       class="leaflet-clickable"
       fill="#4078c0"
       fill-opacity="0.2"
       fill-rule="evenodd"
       stroke="#4078c0"
       stroke-linecap="round"
       stroke-linejoin="round"
       stroke-opacity="0.5"
       stroke-width="1.5"
       d="M 543 342 L 543 343 Z"
       id="path1127" />
  </g>
  <g
     id="g1133">
    <path
       class="leaflet-clickable"
       fill="#4078c0"
       fill-opacity="0.2"
       fill-rule="evenodd"
       stroke="#4078c0"
       stroke-linecap="round"
       stroke-linejoin="round"
       stroke-opacity="0.5"
       stroke-width="1.5"
       d="M 543 340 L 543 342 L 542 340 Z"
       id="path1131" />
  </g>
  <g
     id="g1137">
    <path
       class="leaflet-clickable"
       fill="#4078c0"
       fill-opacity="0.2"
       fill-rule="evenodd"
       stroke="#4078c0"
       stroke-linecap="round"
       stroke-linejoin="round"
       stroke-opacity="0.5"
       stroke-width="1.5"
       d="M 540 338 L 540 339 Z"
       id="path1135" />
  </g>
  <g
     id="g1141">
    <path
       class="leaflet-clickable"
       fill="#4078c0"
       fill-opacity="0.2"
       fill-rule="evenodd"
       stroke="#4078c0"
       stroke-linecap="round"
       stroke-linejoin="round"
       stroke-opacity="0.5"
       stroke-width="1.5"
       d="M 534 338 L 534 339 Z"
       id="path1139" />
  </g>
  <g
     id="g1145">
    <path
       class="leaflet-clickable"
       fill="#4078c0"
       fill-opacity="0.2"
       fill-rule="evenodd"
       stroke="#4078c0"
       stroke-linecap="round"
       stroke-linejoin="round"
       stroke-opacity="0.5"
       stroke-width="1.5"
       d="M 503 334 L 502 334 Z"
       id="path1143" />
  </g>
  <g
     id="g1149">
    <path
       class="leaflet-clickable"
       fill="#4078c0"
       fill-opacity="0.2"
       fill-rule="evenodd"
       stroke="#4078c0"
       stroke-linecap="round"
       stroke-linejoin="round"
       stroke-opacity="0.5"
       stroke-width="1.5"
       d="M 549 331 L 549 332 Z"
       id="path1147" />
  </g>
  <g
     id="g1153">
    <path
       class="leaflet-clickable"
       fill="#4078c0"
       fill-opacity="0.2"
       fill-rule="evenodd"
       stroke="#4078c0"
       stroke-linecap="round"
       stroke-linejoin="round"
       stroke-opacity="0.5"
       stroke-width="1.5"
       d="M 438 225 L 437 226 Z"
       id="path1151" />
  </g>
  <g
     id="g1157">
    <path
       class="leaflet-clickable"
       fill="#4078c0"
       fill-opacity="0.2"
       fill-rule="evenodd"
       stroke="#4078c0"
       stroke-linecap="round"
       stroke-linejoin="round"
       stroke-opacity="0.5"
       stroke-width="1.5"
       d="M 451 224 L 452 226 L 451 225 Z"
       id="path1155" />
  </g>
  <g
     id="g1161">
    <path
       class="leaflet-clickable"
       fill="#4078c0"
       fill-opacity="0.2"
       fill-rule="evenodd"
       stroke="#4078c0"
       stroke-linecap="round"
       stroke-linejoin="round"
       stroke-opacity="0.5"
       stroke-width="1.5"
       d="M 440 209 L 440 214 L 438 212 L 436 214 L 433 212 L 439 210 Z"
       id="path1159" />
  </g>
  <g
     id="g1165">
    <path
       class="leaflet-clickable"
       fill="#4078c0"
       fill-opacity="0.2"
       fill-rule="evenodd"
       stroke="#4078c0"
       stroke-linecap="round"
       stroke-linejoin="round"
       stroke-opacity="0.5"
       stroke-width="1.5"
       d="M 427 203 L 426 204 Z"
       id="path1163" />
  </g>
  <g
     id="g1169">
    <path
       class="leaflet-clickable"
       fill="#4078c0"
       fill-opacity="0.2"
       fill-rule="evenodd"
       stroke="#4078c0"
       stroke-linecap="round"
       stroke-linejoin="round"
       stroke-opacity="0.5"
       stroke-width="1.5"
       d="M 481 181 L 481 180 Z"
       id="path1167" />
  </g>
  <g
     id="g1173">
    <path
       class="leaflet-clickable"
       fill="#4078c0"
       fill-opacity="0.2"
       fill-rule="evenodd"
       stroke="#4078c0"
       stroke-linecap="round"
       stroke-linejoin="round"
       stroke-opacity="0.5"
       stroke-width="1.5"
       d="M 479 182 L 483 181 L 484 184 L 481 185 L 480 188 L 478 189 L 479 190 L 477 192 L 479 196 L 481 195 L 480 197 L 477 197 L 477 199 L 474 201 L 474 203 L 476 203 L 475 208 L 470 212 L 472 216 L 466 220 L 467 223 L 458 223 L 458 225 L 455 223 L 457 223 L 458 220 L 452 213 L 447 211 L 448 208 L 442 206 L 443 199 L 437 188 L 437 180 L 431 172 L 432 171 L 423 162 L 426 159 L 429 159 L 433 163 L 439 165 L 440 167 L 441 166 L 444 170 L 447 169 L 451 171 L 453 169 L 454 171 L 458 171 L 458 169 L 460 169 L 463 166 L 465 169 L 466 168 L 468 171 L 470 171 L 468 174 L 470 176 L 469 178 L 478 182 Z"
       id="path1171" />
  </g>
  <g
     id="g1181">
    <path
       class="leaflet-clickable"
       fill="#4078c0"
       fill-opacity="0.2"
       fill-rule="evenodd"
       stroke="#4078c0"
       stroke-linecap="round"
       stroke-linejoin="round"
       stroke-opacity="0.5"
       stroke-width="1.5"
       d="M 503 213 L 502 216 L 496 217 L 496 219 L 493 220 L 493 222 L 491 222 L 488 225 L 482 220 L 480 215 L 477 216 L 474 214 L 476 212 L 474 210 L 476 203 L 474 203 L 474 201 L 477 197 L 478 198 L 481 196 L 479 196 L 477 192 L 481 186 L 484 186 L 484 188 L 486 188 L 490 192 L 494 192 L 493 193 L 496 199 L 495 201 L 497 202 L 496 205 L 498 209 L 500 208 L 505 211 L 503 213 Z"
       id="path1179" />
  </g>
  <g
     id="g1222">
    <g
       id="g1065">
      <path
         style="fill:#4078c0;fill-opacity:0.2;fill-rule:evenodd;stroke:#4078c0;stroke-width:1.5;stroke-linecap:round;stroke-linejoin:round;stroke-opacity:0.5"
         inkscape:connector-curvature="0"
         id="path1063"
         d="m 412,154 6,2 v 4 l 5,1 5,6 -1,1 1,-1 4,4 -2,2 -3,-3 v 2 l -4,-3 -1,1 v -2 l -3,-2 -16,-6 -6,3 -12,15 -10,3 -1,-3 4,-4 -1,-1 2,-4 5,2 3,-3 -1,-4 4,-3 v -4 l 4,2 3,-2 1,1 2,-3 3,2 3,-1 v -4 l 6,3 z"
         class="leaflet-clickable" />
    </g>
    <g
       id="g1081">
      <path
         style="fill:#4078c0;fill-opacity:0.2;fill-rule:evenodd;stroke:#4078c0;stroke-width:1.5;stroke-linecap:round;stroke-linejoin:round;stroke-opacity:0.5"
         inkscape:connector-curvature="0"
         id="path1079"
         d="m 401,106 1,2 -4,5 v 3 l 3,5 v 4 l 3,4 -3,1 v 2 l -2,-2 -2,4 3,7 3,1 1,-2 h 2 l 3,7 3,1 1,2 -1,4 -1,1 -4,-3 -1,4 -3,1 -2,-2 -8,4 -2,-2 -4,7 v 4 l -3,3 -4,-2 -1,3 -1,-4 -7,2 -7,-4 -1,1 -4,-10 2,-4 3,-1 -2,-3 1,-1 -6,-3 -3,-7 h 5 l 6,-4 v -3 l 2,-2 -2,-1 v -3 l 2,2 1,-2 5,-2 5,1 5,-3 1,-3 -2,-1 v -7 l 3,-1 1,-3 h 2 l 1,-3 -2,-2 7,-7 2,1 -1,5 5,6 z"
         class="leaflet-clickable" />
    </g>
    <g
       id="g1185">
      <path
         style="fill:#4078c0;fill-opacity:0.2;fill-rule:evenodd;stroke:#4078c0;stroke-width:1.5;stroke-linecap:round;stroke-linejoin:round;stroke-opacity:0.5"
         inkscape:connector-curvature="0"
         id="path1183"
         d="m 382,112 2,9 -5,3 -6,-1 -2,2 h -3 l -1,2 -2,-2 v 2 l -3,-2 1,-4 h -2 l -3,-3 v -3 l 5,-2 4,1 2,-2 2,1 5,-3 5,2 z"
         class="leaflet-clickable" />
    </g>
  </g>
  <g
     id="g1189">
    <path
       class="leaflet-clickable"
       fill="#4078c0"
       fill-opacity="0.2"
       fill-rule="evenodd"
       stroke="#4078c0"
       stroke-linecap="round"
       stroke-linejoin="round"
       stroke-opacity="0.5"
       stroke-width="1.5"
       d="M 488 143 L 487 146 L 487 143 Z"
       id="path1187" />
  </g>
  <g
     inkscape:groupmode="layer"
     id="layer1"
     inkscape:label="Region" />
  <g
     id="g1193">
    <path
       class="leaflet-clickable"
       fill="#4078c0"
       fill-opacity="0.2"
       fill-rule="evenodd"
       stroke="#4078c0"
       stroke-linecap="round"
       stroke-linejoin="round"
       stroke-opacity="0.5"
       stroke-width="1.5"
       d="M 488 142 L 487 143 Z"
       id="path1191" />
  </g>
  <g
     id="g1197">
    <path
       class="leaflet-clickable"
       fill="#4078c0"
       fill-opacity="0.2"
       fill-rule="evenodd"
       stroke="#4078c0"
       stroke-linecap="round"
       stroke-linejoin="round"
       stroke-opacity="0.5"
       stroke-width="1.5"
       d="M 483 134 L 483 135 Z"
       id="path1195" />
  </g>
  <g
     id="g1201">
    <path
       class="leaflet-clickable"
       fill="#4078c0"
       fill-opacity="0.2"
       fill-rule="evenodd"
       stroke="#4078c0"
       stroke-linecap="round"
       stroke-linejoin="round"
       stroke-opacity="0.5"
       stroke-width="1.5"
       d="M 481 129 L 481 130 Z"
       id="path1199" />
  </g>
  <g
     id="g1230">
    <g
       id="g1053">
      <path
         style="fill:#4078c0;fill-opacity:0.2;fill-rule:evenodd;stroke:#4078c0;stroke-width:1.5;stroke-linecap:round;stroke-linejoin:round;stroke-opacity:0.5"
         inkscape:connector-curvature="0"
         id="path1051"
         d="m 501,121 -3,-6 -4,-1 -2,2 -6,-5 -1,-3 2,-4 -1,-2 -3,-1 8,-8 2,-5 5,2 1,-1 5,2 3,-1 8,2 v 2 l -5,3 -2,5 6,1 -2,4 h -2 v 3 h 3 l -1,4 8,7 -4,2 v -2 l -5,-5 -2,4 -6,-3 -2,1 v 2 z"
         class="leaflet-clickable" />
    </g>
    <g
       id="g1177">
      <path
         style="fill:#4078c0;fill-opacity:0.2;fill-rule:evenodd;stroke:#4078c0;stroke-width:1.5;stroke-linecap:round;stroke-linejoin:round;stroke-opacity:0.5"
         inkscape:connector-curvature="0"
         id="path1175"
         d="m 487,87 -3,2 -6,-2 -2,5 -1,-1 -3,2 2,2 -3,3 4,5 -6,4 -1,4 -4,-2 -3,3 h -2 l -3,7 -4,1 -2,-3 1,-2 -7,1 -2,-2 -1,-5 3,-8 -1,-4 2,-1 -2,-3 h -2 l 1,-3 -3,-3 2,-2 v -4 l 5,-1 2,2 -1,1 7,1 3,-7 h 15 l 9,-4 1,1 -3,1 v 3 l 7,9 z"
         class="leaflet-clickable" />
    </g>
    <g
       id="g1205">
      <path
         style="fill:#4078c0;fill-opacity:0.2;fill-rule:evenodd;stroke:#4078c0;stroke-width:1.5;stroke-linecap:round;stroke-linejoin:round;stroke-opacity:0.5"
         inkscape:connector-curvature="0"
         id="path1203"
         d="m 493,88 v 2 l -10,11 4,4 -2,3 3,6 4,2 4,-2 5,7 -15,7 4,-3 h -6 l -4,4 1,1 -2,2 3,4 h 2 l -2,3 h 2 l 3,4 v 4 l -1,-2 -1,3 -2,-4 -8,-2 -5,1 -1,2 -6,-1 -5,-5 h -3 l -6,-7 -2,1 -2,-11 5,-7 v 4 l 2,1 5,-2 2,-6 h 2 l 3,-3 4,2 2,-5 5,-2 -4,-6 2,-6 h 2 l 3,-3 v -2 l 3,2 5,-2 6,1 z"
         class="leaflet-clickable" />
    </g>
  </g>
</svg>
